<?xml version="1.0" encoding="UTF-8"?>
<svg xmlns="http://www.w3.org/2000/svg" id="fe155018-ed0f-4b17-89c5-618bdced0b70" data-name="Layer 1" viewBox="0 0 81 81" width="70" height="70"><path d="M51.86,66.26a12.42,12.42,0,0,0,10.33-5.09q3.93-5.1,3.92-13.41,0-7.63-3.46-12a11.4,11.4,0,0,0-9.49-4.41q-7.45,0-11.18,7V32.07H35.92V42.45a12.73,12.73,0,0,1-2.55.34q-5.67,0-5.67-6.56V17.7h8.75V13.15H27.7V2.33a40.6,40.6,0,0,0-6.06,2.59v8.23H17.46V17.7h4.18V37.34a10,10,0,0,0,2.59,7.35,9.57,9.57,0,0,0,7.2,2.65,18,18,0,0,0,4.49-.69v34a42.38,42.38,0,0,0,4.53.26c.52,0,1,0,1.53,0V61.7A12.52,12.52,0,0,0,51.86,66.26ZM42,42.13q4.85-5.51,9.92-5.51,7.76,0,7.75,11.76,0,13.32-8.74,13.32-4.24,0-8.93-4.18Z" style="fill:#fff"/><path d="M59.62,48.38q0-11.75-7.74-11.74-5.07,0-9.9,5.5V57.5q4.68,4.19,8.92,4.18Q59.62,61.68,59.62,48.38Z" style="fill:#5fa2d4"/><path d="M31.45,47.34a9.6,9.6,0,0,1-7.19-2.64,10.06,10.06,0,0,1-2.58-7.34V17.76H17.51V13.22h4.17V4.92A40.42,40.42,0,0,0,8.84,15.72c-.32.4-.63.81-.93,1.22l-.41.58a40.36,40.36,0,0,0,9.77,56l0,0c.43.3.88.6,1.32.89l.36.23,1.08.66.71.41.8.44c.37.2.75.39,1.13.58l.45.22a39.74,39.74,0,0,0,12.8,3.69v-34A18.56,18.56,0,0,1,31.45,47.34Z" style="fill:#5fa2d4"/><path d="M80.7,40.56a40.18,40.18,0,0,0-53-38.23V13.22h8.73v4.54H27.73v18.5q0,6.54,5.65,6.54a12.72,12.72,0,0,0,2.56-.33V32.1h6v6.26q3.74-7,11.16-7a11.38,11.38,0,0,1,9.47,4.39q3.47,4.39,3.46,12,0,8.3-3.92,13.38a12.37,12.37,0,0,1-10.31,5.08A12.51,12.51,0,0,1,42,61.68V80.85A40.08,40.08,0,0,0,71.47,66.24l.06-.06c.36-.45.72-.9,1.06-1.36l.16-.21q.47-.61.9-1.26L73.9,63c.25-.38.49-.76.73-1.15l.33-.52c.2-.34.4-.68.59-1s.26-.45.38-.69.31-.59.46-.89.29-.58.43-.87l.35-.75c.15-.35.31-.7.45-1.05.09-.2.17-.41.25-.61.16-.41.32-.81.46-1.22l.17-.48c.15-.46.31-.92.45-1.39a3.37,3.37,0,0,0,.1-.34c.15-.51.3-1,.43-1.56,0-.06,0-.13,0-.2.14-.57.27-1.14.39-1.72a.19.19,0,0,1,0-.08,40,40,0,0,0,.72-5.84c0-.16,0-.32,0-.47,0-.51,0-1,0-1.55Z" style="fill:#5fa2d4"/></svg>
